<svg xmlns="http://www.w3.org/2000/svg" viewBox="0 0 512 512" fill="currentColor">
  <path d="M256,0c-8.284,0-15,6.716-15,15v45.029c0,8.284,6.716,15,15,15s15-6.716,15-15V15C271,6.716,264.284,0,256,0z"/>
  <path d="M191.365,36.518c-4.143-7.174-13.316-9.633-20.489-5.49c-7.174,4.143-9.633,13.316-5.49,20.489l22.515,38.994
    c2.771,4.8,7.787,7.484,12.999,7.484c2.549,0,5.136-0.649,7.49-2.006c7.174-4.143,9.633-13.316,5.49-20.489L191.365,36.518z"/>
  <path d="M341.124,31.028c-7.174-4.143-16.347-1.684-20.489,5.49l-22.515,38.994c-4.143,7.174-1.684,16.347,5.49,20.489
    c2.354,1.357,4.941,2.006,7.49,2.006c5.212,0,10.228-2.685,12.999-7.484l22.515-38.994
    C350.757,44.355,348.298,35.182,341.124,31.028z"/>
  <path d="M421.002,181.116h-28.364v-45.029c0-24.813-20.187-45-45-45H89.362c-24.813,0-45,20.187-45,45v45.029V407.03
    c0,24.813,20.187,45,45,45h258.276c24.813,0,45-20.187,45-45v-91.842h28.364c50.177,0,90.998-40.821,90.998-90.997
    C512,221.937,471.179,181.116,421.002,181.116z M362.638,407.03c0,8.271-6.729,15-15,15H89.362c-8.271,0-15-6.729-15-15V211.116
    h288.276V407.03z M421.002,285.188h-28.364v-74.073h28.364c33.636,0,60.998,27.362,60.998,60.997S454.638,285.188,421.002,285.188
    z"/>
</svg>
