<svg xmlns="http://www.w3.org/2000/svg" viewBox="0 0 512 512" fill="currentColor">
  <path d="M508.491,91.444C503.905,44.054,466.538,7.115,419.145,3.001c-62.47-5.421-120.673,9.653-173.078,44.806
    c-48.193,32.314-84.827,76.635-108.882,131.679c-1.626,3.721-3.189,7.47-4.692,11.246c-16.536,41.515-24.924,86.223-24.924,132.925
    c0,99.318,39.755,189.379,104.116,255.262c3.839,3.931,9.059,6.082,14.393,6.082c0.006,0,0.012,0,0.019,0
    c5.341-0.003,10.561-2.165,14.396-6.104c64.265-66.002,103.795-156.162,103.795-255.24c0-27.063-3.11-53.635-9.014-79.204
    l82.625-82.625c3.905-3.905,3.905-10.237,0-14.143c-3.905-3.904-10.237-3.904-14.143,0l-87.258,87.258
    c-10.024-33.815-24.532-65.571-43.161-94.578c22.044-49.398,55.695-90.932,100.045-123.412
    C419.859,86.859,470.81,74.049,508.491,91.444z"/>
  <path d="M304.133,234.396c-3.905-3.905-10.237-3.905-14.143,0l-36.287,36.287c-3.905,3.905-3.905,10.237,0,14.143
    c1.953,1.952,4.512,2.929,7.071,2.929s5.118-0.977,7.071-2.929l36.287-36.287C308.038,244.634,308.038,238.302,304.133,234.396z"/>
</svg>
